<?xml version="1.0" standalone="no"?>
<!DOCTYPE svg PUBLIC "-//W3C//DTD SVG 20010904//EN"
 "http://www.w3.org/TR/2001/REC-SVG-20010904/DTD/svg10.dtd">
<svg version="1.0" xmlns="http://www.w3.org/2000/svg"
 width="652.000000pt" height="652.000000pt" viewBox="0 0 652.000000 652.000000"
 preserveAspectRatio="xMidYMid meet">
<metadata>
Created by potrace 1.14, written by Peter Selinger 2001-2017
</metadata>
<g transform="translate(0.000000,652.000000) scale(0.100000,-0.100000)"
fill="#000000" stroke="none">
<path d="M0 5525 l0 -65 3155 0 3155 0 0 -2365 0 -2365 70 0 70 0 -4 2421 c-2
1331 -6 2423 -9 2426 -3 3 -1453 7 -3221 9 l-3216 4 0 -65z"/>
<path d="M1486 3594 c-173 -33 -280 -88 -399 -205 -73 -74 -94 -102 -133 -181
-55 -116 -83 -239 -78 -353 12 -291 215 -558 494 -650 72 -24 272 -34 361 -18
230 41 434 211 524 438 110 278 39 581 -187 790 -153 141 -392 214 -582 179z"/>
<path d="M4151 3594 c-98 -17 -163 -38 -238 -79 -137 -75 -230 -173 -303 -320
-56 -111 -73 -201 -67 -350 4 -105 8 -130 37 -203 62 -160 168 -288 310 -372
113 -68 189 -87 364 -94 241 -10 479 124 608 341 85 143 108 245 97 433 -7
123 -41 220 -114 329 -134 201 -316 302 -585 325 -19 1 -68 -3 -109 -10z"/>
</g>
</svg>
